<?xml version="1.0" encoding="iso-8859-1"?><!-- Generator: Adobe Illustrator 16.0.0, SVG Export Plug-In . SVG Version: 6.00 Build 0)  -->
<!DOCTYPE svg PUBLIC "-//W3C//DTD SVG 1.1//EN" "http://www.w3.org/Graphics/SVG/1.1/DTD/svg11.dtd">
<svg style="enable-background:new 0 0 485.677 485.677;" height="485.677px" id="Capa_1" version="1.1" viewBox="0 0 485.677 485.677" width="485.677px"
    x="0px" xmlns="http://www.w3.org/2000/svg" y="0px"
    xml:space="preserve">
<g>
	<g>
		<g>
			<path d="M242.833,485.677C108.936,485.677,0,376.742,0,242.838C0,108.936,108.936,0,242.833,0
				c133.909,0,242.844,108.936,242.844,242.838C485.677,376.742,376.742,485.677,242.833,485.677z M242.833,74.431
				c-92.861,0-168.403,75.546-168.403,168.407c0,92.862,75.542,168.408,168.403,168.408c92.861,0,168.414-75.546,168.414-168.408
				C411.247,149.977,335.694,74.431,242.833,74.431z" />
		</g>
        <g>
			<g>
				<path d="M373.283,243.57c0,20.88-16.926,37.807-37.807,37.807H150.198c-20.879,0-37.805-16.926-37.805-37.805
					c0-21.69,17.583-39.273,39.273-39.273h183.81c20.881,0,37.807,16.927,37.807,37.807L373.283,243.57L373.283,243.57z" />
			</g>
		</g>
	</g>
</g>
    <g>
</g>
    <g>
</g>
    <g>
</g>
    <g>
</g>
    <g>
</g>
    <g>
</g>
    <g>
</g>
    <g>
</g>
    <g>
</g>
    <g>
</g>
    <g>
</g>
    <g>
</g>
    <g>
</g>
    <g>
</g>
    <g>
</g>
</svg>
