<?xml version="1.0" encoding="iso-8859-1"?>
<!-- Generator: Adobe Illustrator 16.0.0, SVG Export Plug-In . SVG Version: 6.00 Build 0)  -->
<!DOCTYPE svg PUBLIC "-//W3C//DTD SVG 1.1//EN" "http://www.w3.org/Graphics/SVG/1.1/DTD/svg11.dtd">
<svg version="1.1" id="Capa_1" xmlns="http://www.w3.org/2000/svg" xmlns:xlink="http://www.w3.org/1999/xlink" x="0px" y="0px"
	 width="487.77px" height="487.77px" viewBox="0 0 487.77 487.77" style="enable-background:new 0 0 487.77 487.77;"
	 xml:space="preserve">
<g>
	<g>
		<path d="M487.77,243.877C487.77,109.402,378.368,0,243.887,0C109.402,0,0,109.402,0,243.877
			C0,378.361,109.402,487.77,243.887,487.77C378.368,487.77,487.77,378.361,487.77,243.877z M74.754,243.877
			c0-93.251,75.872-169.124,169.133-169.124c93.256,0,169.128,75.872,169.128,169.124c0,93.262-75.872,169.139-169.128,169.139
			C150.626,413.016,74.754,337.141,74.754,243.877z"/>
		<path d="M282.414,282.372h53.027c21.79,0,39.445-17.592,39.445-39.373c0-20.965-17.001-37.898-37.967-37.898h-54.507v-52.783
			c0-21.79-17.583-39.447-39.373-39.447c-20.965,0-37.893,16.992-37.893,37.963v54.267h-54.3c-20.976,0-38.181,17.077-38.181,38.047
			v1.474c0,20.971,17.205,37.749,38.181,37.749h54.3v54.549c0,20.977,17.028,37.938,38.004,37.938h1.463
			c20.976,0,37.798-16.961,37.798-37.938v-54.548H282.414z"/>
	</g>
</g>
<g>
</g>
<g>
</g>
<g>
</g>
<g>
</g>
<g>
</g>
<g>
</g>
<g>
</g>
<g>
</g>
<g>
</g>
<g>
</g>
<g>
</g>
<g>
</g>
<g>
</g>
<g>
</g>
<g>
</g>
</svg>
